<?xml version="1.0" standalone="no"?>
<!DOCTYPE svg PUBLIC "-//W3C//DTD SVG 20010904//EN"
 "http://www.w3.org/TR/2001/REC-SVG-20010904/DTD/svg10.dtd">
<svg version="1.0" xmlns="http://www.w3.org/2000/svg"
 width="200.000000pt" height="200.000000pt" viewBox="0 0 200.000000 200.000000"
 preserveAspectRatio="xMidYMid meet">

<g transform="translate(0.000000,200.000000) scale(0.100000,-0.100000)"
fill="#000000" stroke="none">
<path d="M962 1984 c-21 -14 -22 -22 -22 -160 0 -107 -3 -146 -12 -148 -7 -2
-38 -8 -68 -14 -82 -15 -164 -49 -235 -96 l-63 -43 -34 32 c-47 47 -72 52
-103 21 -34 -34 -32 -50 14 -98 l38 -42 -43 -65 c-49 -72 -81 -149 -96 -231
-6 -30 -12 -61 -14 -67 -2 -10 -40 -13 -144 -13 -127 0 -142 -2 -160 -20 -24
-24 -25 -49 -6 -76 13 -17 31 -20 162 -24 l148 -5 12 -65 c15 -85 54 -177 102
-249 l40 -57 -39 -42 c-46 -48 -48 -64 -14 -97 33 -34 49 -32 97 14 l42 39 59
-41 c72 -49 187 -94 261 -103 l56 -7 0 -143 c0 -131 2 -146 20 -164 11 -11 29
-20 40 -20 11 0 29 9 40 20 18 18 20 33 20 164 l0 143 56 7 c75 9 185 53 259
103 l61 41 41 -39 c49 -46 65 -48 98 -14 34 33 32 49 -14 97 l-39 42 40 57
c48 72 87 164 102 249 l12 65 148 5 c131 4 149 7 162 24 18 25 18 47 0 72 -13
17 -31 20 -162 24 l-148 5 -12 65 c-15 84 -53 176 -102 249 l-39 58 39 41 c43
46 47 73 18 102 -29 29 -56 25 -102 -18 l-41 -38 -63 42 c-81 55 -146 79 -286
109 l-28 5 0 140 c0 127 -2 142 -20 160 -24 24 -48 25 -78 4z m-106 -650 c94
-45 111 -178 31 -238 -64 -48 -138 -43 -192 14 -40 42 -47 121 -13 170 25 38
79 70 116 70 13 0 39 -7 58 -16z"/>
</g>
</svg>
